<?xml version="1.0" encoding="utf-8"?>
<!-- Generator: Adobe Illustrator 18.1.1, SVG Export Plug-In . SVG Version: 6.00 Build 0)  -->
<svg version="1.1" id="Layer_1" xmlns="http://www.w3.org/2000/svg" xmlns:xlink="http://www.w3.org/1999/xlink" x="0px" y="0px"
	 viewBox="195.8 334.8 220.4 122.6" enable-background="new 195.8 334.8 220.4 122.6" xml:space="preserve">
<path fill="#FFFFFF" d="M342.5,443.8v1.4H338v12.1h-1.6v-12.1h-4.6v-1.4H342.5L342.5,443.8z M347.7,452.4h6.2l-3.1-6.9L347.7,452.4z
	 M351.6,443.7l6.2,13.7h-1.6l-1.6-3.6h-7.4l-1.6,3.6H344l6.2-13.7H351.6z M361.9,443.8v13.6h9.2V456h-7.6v-12.1H361.9L361.9,443.8z
	 M375.3,443.8v13.6h9.9V456h-8.4v-4.7h7.4v-1.4h-7.4v-4.6h8.3v-1.4L375.3,443.8L375.3,443.8z M399.7,443.8v10.9l-8.5-10.9h-1.4v13.6
	h1.5v-11.1l8.8,11.1h1.2v-13.6H399.7L399.7,443.8z M405.5,443.8v1.4h4.6v12.1h1.6v-12.1h4.6v-1.4H405.5L405.5,443.8z M328.5,412.7
	l5.4,17.4h-41.1l6-17.2L328.5,412.7L328.5,412.7z M313.3,363.1l9.4,30.7h-18.9L313.3,363.1L313.3,363.1z M287.6,334.8v20.4
	L260,430.1h-1.2v-36.4h-34.1v36.4h-28.8v-95.3h28.8v33.7h34.1v-33.7H287.6z M415.2,334.8v22.7l-36.4,47.4h37.4v25.1h-49.7L352.5,392
	l24.6-32h-36.3v-25.1L415.2,334.8L415.2,334.8z"/>
</svg>
